<?xml version="1.0" standalone="no"?>
<!DOCTYPE svg PUBLIC "-//W3C//DTD SVG 20010904//EN"
 "http://www.w3.org/TR/2001/REC-SVG-20010904/DTD/svg10.dtd">
<svg version="1.0" xmlns="http://www.w3.org/2000/svg"
 width="729.000000pt" height="729.000000pt" viewBox="0 0 729.000000 729.000000"
 preserveAspectRatio="xMidYMid meet">
<metadata>
Created by potrace 1.14, written by Peter Selinger 2001-2017
</metadata>
<g transform="translate(0.000000,729.000000) scale(0.100000,-0.100000)"
fill="#000000" stroke="none">
<path d="M2 3648 l-2 -3648 1293 0 1293 0 -6 50 c-5 40 -4 47 7 39 7 -6 2 15
-11 48 -13 32 -38 135 -55 228 -18 94 -50 249 -71 345 -60 272 -77 369 -90
509 -13 145 1 268 43 379 18 48 39 114 46 147 8 33 26 87 42 120 15 32 27 61
25 63 -9 8 -123 -104 -207 -203 -52 -60 -176 -191 -277 -291 l-183 -182 -137
-62 c-75 -34 -204 -88 -287 -120 -250 -98 -359 -143 -630 -260 -203 -88 -647
-260 -767 -297 -17 -5 -18 163 -21 3388 l-2 3394 -3 -3647z"/>
<path d="M3560 7010 c-36 -4 -72 -10 -80 -13 -14 -5 -73 -13 -170 -23 -81 -7
-577 -161 -527 -163 41 -2 -9 -71 -52 -71 -12 0 -35 -7 -52 -15 -16 -9 -34
-13 -39 -10 -6 4 -13 -1 -16 -9 -3 -9 -37 -36 -75 -62 -38 -25 -69 -50 -69
-55 0 -6 15 2 34 16 l33 25 -5 -25 c-2 -14 -8 -28 -13 -31 -5 -3 -9 -16 -9
-29 0 -19 -12 -29 -56 -52 -88 -44 -108 -56 -141 -86 -17 -16 -48 -37 -69 -49
-49 -25 -63 -38 -43 -38 8 0 21 6 28 13 11 10 12 7 5 -13 -10 -31 -10 -59 1
-83 7 -17 3 -18 -41 -14 -53 4 -130 -15 -153 -38 -12 -12 -12 -21 -3 -52 6
-20 8 -40 3 -43 -4 -3 -13 -15 -20 -27 -6 -13 -24 -26 -38 -30 -39 -9 -141
-87 -172 -130 -52 -72 -121 -190 -121 -205 0 -9 -6 -21 -14 -27 -29 -25 -41
-192 -15 -219 15 -16 15 -19 -2 -43 -10 -15 -20 -40 -21 -58 -1 -17 -5 -31 -8
-31 -8 0 -31 -90 -25 -100 3 -4 1 -29 -4 -54 -5 -26 -5 -46 0 -46 14 0 10 -27
-5 -33 -20 -8 -28 -47 -9 -47 8 0 11 -5 8 -10 -4 -6 -10 -8 -14 -6 -14 9 2
-59 16 -70 11 -7 13 -20 8 -45 -3 -18 -7 -67 -8 -106 -2 -41 -8 -78 -15 -85
-17 -17 -15 -47 3 -54 8 -4 12 -10 9 -15 -3 -6 0 -16 6 -25 14 -16 6 -110 -12
-131 -8 -10 -5 -13 10 -13 12 0 24 -5 28 -11 4 -8 9 -7 16 2 7 10 8 2 4 -25
-3 -21 2 -71 10 -111 13 -63 13 -78 1 -102 -22 -45 -15 -146 17 -243 16 -47
35 -92 42 -101 8 -8 14 -21 14 -27 0 -7 5 -12 11 -12 6 0 8 7 5 16 -3 9 -6 33
-6 54 0 22 -7 45 -16 55 -20 19 -31 90 -15 99 6 4 11 0 11 -9 0 -17 20 -56 33
-66 5 -3 6 -20 4 -38 -3 -17 -2 -31 2 -31 12 0 38 24 44 40 3 8 6 0 6 -18 1
-34 17 -69 40 -88 8 -6 16 -22 17 -35 2 -13 6 -37 9 -54 4 -22 2 -26 -5 -15
-8 12 -10 10 -10 -11 0 -14 -3 -48 -7 -74 l-6 -47 31 7 c21 4 36 2 45 -7 17
-17 42 -80 39 -95 -2 -7 4 -13 13 -13 8 0 15 -7 15 -15 0 -8 -7 -15 -15 -15
-8 0 -15 -9 -15 -20 0 -11 4 -20 9 -20 5 0 12 -19 16 -42 4 -24 11 -47 15 -53
19 -24 50 -87 50 -100 0 -8 5 -15 10 -15 6 0 10 -15 10 -34 0 -18 7 -46 15
-62 7 -15 17 -52 21 -81 5 -45 3 -57 -12 -75 -19 -20 -19 -21 3 -14 19 6 23 3
29 -21 3 -15 17 -67 30 -115 13 -48 24 -96 24 -107 0 -11 4 -22 9 -25 5 -4 12
-25 16 -49 6 -39 15 -69 36 -109 5 -10 9 -26 9 -36 0 -10 4 -22 9 -27 5 -6 21
-43 35 -83 14 -40 47 -113 73 -163 27 -49 55 -103 63 -119 8 -16 20 -28 27
-25 7 2 10 -2 7 -8 -2 -7 2 -21 10 -32 12 -15 16 -17 16 -5 1 8 3 25 6 38 3
15 -1 22 -11 22 -8 0 -15 7 -15 15 0 16 -15 21 -23 8 -2 -5 -2 -2 -1 5 2 7 1
26 -3 43 -5 26 -10 30 -29 26 -23 -4 -34 8 -14 15 6 2 1 13 -10 26 -12 12 -18
27 -15 32 4 6 -1 13 -10 16 -9 4 -14 13 -10 21 3 9 -3 23 -13 32 -21 18 -41
74 -40 111 1 33 -25 130 -34 130 -5 0 -8 13 -8 29 0 16 -4 31 -10 33 -11 4
-30 80 -37 153 -3 28 -9 54 -14 60 -5 5 -9 22 -9 37 0 15 -5 28 -10 28 -6 0
-8 11 -4 25 4 18 1 27 -10 31 -9 4 -16 18 -16 34 0 16 -5 32 -11 36 -6 3 -9
17 -6 30 3 15 -1 24 -12 26 -12 2 -15 14 -12 51 2 31 -1 47 -9 47 -7 0 -10 8
-7 20 3 11 1 22 -4 25 -4 3 -6 12 -2 21 8 22 -18 104 -33 104 -17 0 -18 27 -1
33 9 3 9 7 1 18 -6 8 -10 35 -9 62 1 26 -2 47 -7 47 -4 0 -8 21 -8 48 0 36 -3
43 -11 32 -8 -12 -9 -11 -5 5 7 29 19 133 22 185 1 25 5 81 8 125 4 44 8 106
10 138 2 32 6 60 10 64 3 3 6 26 6 50 0 25 5 53 10 63 6 11 12 45 14 77 1 32
12 80 24 106 12 27 25 61 28 75 4 15 12 37 20 48 8 14 14 71 17 165 6 197 33
337 82 432 8 16 15 34 15 40 0 7 11 25 25 41 14 16 25 35 25 42 0 12 35 24 93
33 4 0 2 11 -4 24 -6 12 -8 19 -4 15 12 -12 45 11 56 39 5 14 18 27 29 30 11
3 20 12 20 19 0 13 11 18 36 15 6 -1 10 9 10 21 -1 14 5 23 14 23 8 1 23 5 33
9 10 5 40 6 67 4 46 -5 67 4 38 15 -18 7 41 29 77 30 17 0 32 4 36 8 17 26
189 15 189 -11 0 -5 16 -4 35 1 57 16 96 7 109 -24 l11 -28 39 21 c35 18 42
18 56 5 9 -8 29 -15 44 -15 15 0 40 -7 56 -15 17 -9 40 -13 54 -9 18 4 28 0
40 -17 9 -13 16 -20 16 -16 0 5 7 1 16 -8 15 -15 18 -15 36 2 17 15 21 15 28
3 6 -8 10 -19 10 -23 0 -4 10 -3 22 4 17 9 20 9 15 -4 -5 -13 -2 -13 22 -1 38
19 120 21 131 3 7 -10 12 -11 21 -2 8 8 21 8 51 -3 22 -8 44 -12 48 -9 4 2 27
-2 51 -9 55 -17 166 -37 227 -42 26 -1 48 -7 50 -13 2 -6 19 -11 38 -11 19 0
34 -4 34 -10 0 -5 7 -7 15 -3 9 3 24 -2 34 -11 13 -12 20 -14 23 -5 3 8 9 6
21 -5 9 -10 15 -22 12 -27 -4 -5 4 -9 16 -9 12 0 37 -13 56 -30 18 -16 42 -30
52 -30 10 0 24 -7 31 -15 7 -8 19 -15 27 -15 8 0 11 -4 8 -10 -3 -5 1 -10 9
-10 8 0 17 -9 21 -19 3 -11 17 -26 30 -35 14 -9 25 -23 25 -30 0 -8 14 -20 30
-28 17 -7 30 -19 30 -25 0 -7 7 -13 15 -13 9 0 15 -9 15 -21 0 -14 5 -19 14
-16 10 4 17 -4 21 -24 4 -16 11 -29 16 -29 5 0 9 -6 9 -14 0 -8 3 -16 8 -18
12 -5 42 -68 42 -89 0 -10 4 -19 10 -19 13 0 29 -64 24 -92 -4 -17 -1 -15 10
7 14 30 14 30 15 4 1 -14 5 -29 10 -35 14 -14 51 -116 51 -141 0 -16 6 -23 20
-23 13 0 20 -7 20 -20 0 -11 7 -20 15 -20 18 0 20 -17 3 -23 -10 -3 -10 -7 -1
-18 19 -24 22 -166 3 -154 -5 3 -10 -3 -10 -15 l0 -22 -37 23 c-21 12 -61 39
-90 60 -29 22 -58 36 -66 33 -8 -3 -18 -1 -22 5 -3 6 -21 11 -40 11 -19 0 -37
5 -40 10 -3 6 -17 7 -30 4 -12 -3 -25 -1 -28 4 -7 11 -119 -7 -128 -21 -4 -6
-17 -7 -29 -4 -13 3 -33 -1 -46 -9 -13 -9 -28 -13 -33 -9 -6 3 -28 1 -48 -4
-21 -6 -50 -12 -64 -15 -14 -3 -42 -17 -63 -31 -20 -14 -46 -25 -57 -25 -22 0
-49 -22 -49 -39 0 -15 -30 -14 -30 2 -1 7 -6 5 -14 -6 -8 -11 -20 -15 -32 -11
-16 5 -16 4 -4 -5 13 -9 12 -12 -5 -17 -23 -6 -81 -83 -77 -101 2 -7 -2 -13
-8 -13 -5 0 -10 -3 -10 -7 0 -14 70 -12 98 3 15 7 33 14 40 14 8 0 28 7 45 15
40 18 205 47 343 60 27 2 63 6 80 9 18 3 51 -1 75 -9 l44 -15 -47 6 c-31 3
-48 1 -48 -5 0 -7 28 -11 73 -11 65 1 70 2 53 15 -11 8 -28 15 -37 15 -22 0
-49 10 -49 19 0 5 36 6 118 2 6 -1 12 -6 12 -12 0 -5 -4 -7 -10 -4 -5 3 -10 1
-10 -4 0 -6 10 -12 23 -13 36 -2 41 -3 62 -16 17 -10 18 -13 5 -21 -12 -8 -10
-12 10 -20 14 -5 19 -10 11 -10 -8 -1 -12 -4 -9 -7 4 -3 27 -2 52 1 40 6 46
11 46 31 0 12 8 28 18 33 15 9 15 12 2 21 -11 8 -4 9 29 4 42 -6 44 -5 38 18
-4 13 -4 34 0 46 6 25 33 30 33 7 0 -8 5 -15 10 -15 6 0 22 -10 36 -23 21 -20
25 -33 27 -86 1 -34 4 -54 7 -45 5 12 9 14 14 6 4 -7 4 -12 -1 -12 -4 0 0 -5
10 -11 14 -8 17 -18 11 -42 -3 -18 -10 -37 -15 -42 -17 -22 -22 -93 -7 -122
15 -31 15 -51 -5 -320 -1 -12 -5 -25 -9 -29 -5 -4 -8 -37 -8 -73 0 -43 -5 -74
-15 -88 -9 -13 -16 -48 -17 -88 -1 -36 -5 -65 -9 -65 -12 0 -38 -96 -32 -118
4 -16 1 -22 -11 -22 -9 0 -16 -8 -16 -20 0 -11 -9 -46 -20 -77 -11 -32 -20
-70 -20 -87 0 -16 -7 -34 -16 -40 -11 -9 -17 -34 -20 -87 -13 -214 -24 -308
-41 -324 -7 -8 -13 -18 -13 -24 0 -6 -4 -11 -10 -11 -5 0 -10 -7 -10 -15 0 -8
-4 -15 -10 -15 -5 0 -10 -8 -10 -17 0 -26 -34 -92 -47 -93 -6 0 -14 -14 -18
-30 -4 -17 -20 -45 -36 -63 -16 -18 -32 -42 -35 -55 -4 -12 -10 -22 -15 -22
-5 0 -9 -7 -9 -15 0 -8 -7 -15 -15 -15 -8 0 -15 -4 -15 -10 0 -5 5 -10 10 -10
6 0 10 -4 10 -10 0 -5 -7 -10 -15 -10 -9 0 -19 -8 -22 -17 -9 -24 -41 -53 -58
-53 -10 0 -15 -10 -15 -30 0 -22 -5 -30 -18 -30 -10 0 -25 -11 -32 -25 -7 -14
-20 -25 -28 -25 -9 0 -13 -7 -9 -20 3 -11 0 -20 -6 -20 -15 -1 -67 -68 -67
-87 0 -7 -4 -13 -10 -13 -5 0 -10 -7 -10 -15 0 -18 -16 -20 -24 -2 -4 8 -5 7
-4 -3 2 -22 -12 -50 -26 -50 -16 -1 -64 -40 -48 -40 6 0 12 -9 12 -20 0 -13
-5 -18 -15 -14 -20 8 -45 -13 -45 -37 0 -22 -29 -59 -46 -59 -7 0 -14 -4 -16
-8 -6 -14 -101 -76 -169 -109 -49 -24 -68 -39 -73 -57 -8 -32 19 -66 51 -66
13 0 23 -4 23 -10 0 -5 7 -10 15 -10 8 0 15 7 15 16 0 12 6 15 25 10 18 -5 24
-3 23 6 -2 9 13 14 45 16 33 2 47 7 47 18 0 8 10 14 25 14 14 0 25 4 25 9 0 5
12 12 27 16 15 3 44 24 65 46 21 21 46 39 57 39 12 0 21 9 25 26 9 33 29 54
53 54 29 0 54 36 47 68 -5 25 -4 25 9 10 17 -22 27 -23 27 -3 0 8 7 15 15 15
8 0 15 7 15 15 0 11 11 15 38 15 51 0 72 -26 72 -90 0 -37 4 -50 15 -50 8 0
17 -14 21 -35 5 -31 1 -41 -46 -100 -28 -36 -56 -65 -61 -65 -5 0 -9 -7 -9
-15 0 -8 -4 -15 -9 -15 -5 0 -12 -11 -15 -25 -4 -14 -11 -25 -16 -25 -6 0 -10
-7 -10 -15 0 -8 -7 -15 -16 -15 -11 0 -15 -6 -11 -20 3 -12 -2 -25 -12 -33
-10 -6 -26 -24 -35 -39 -10 -16 -22 -28 -27 -28 -5 0 -23 -16 -40 -35 -17 -19
-37 -35 -43 -35 -7 0 -18 -12 -24 -26 -7 -14 -17 -22 -22 -19 -6 3 -10 0 -10
-7 0 -17 -61 -78 -78 -78 -7 0 -12 -7 -12 -15 0 -19 -35 -50 -98 -87 -26 -15
-43 -28 -38 -28 4 0 -2 -8 -15 -19 -13 -10 -30 -16 -38 -13 -9 4 -12 1 -7 -7
5 -7 -3 -22 -21 -38 -15 -15 -27 -33 -25 -41 2 -9 -3 -12 -16 -8 -13 5 -22 -1
-32 -19 -8 -15 -22 -25 -36 -25 -12 0 -24 -4 -26 -8 -1 -4 -30 -18 -63 -30
-58 -20 -63 -21 -127 -6 -44 10 -68 21 -68 30 0 7 -11 16 -25 20 -14 3 -25 10
-25 15 0 5 -7 9 -15 9 -8 0 -15 5 -15 10 0 6 -7 10 -15 10 -8 0 -15 4 -15 9 0
5 -11 12 -25 15 -14 4 -25 11 -25 16 0 6 -7 10 -15 10 -8 0 -14 3 -14 8 4 21
-4 30 -28 37 -27 6 -63 36 -63 52 0 4 -15 15 -33 24 -18 9 -33 25 -35 37 -2
13 -8 19 -18 15 -7 -3 -17 2 -20 11 -3 9 -13 16 -20 16 -8 0 -17 7 -20 15 -4
8 -10 12 -15 9 -5 -3 -9 2 -9 10 0 9 -4 16 -9 16 -6 0 -22 11 -37 25 -15 14
-35 25 -45 25 -10 0 -26 11 -35 25 -9 14 -23 25 -30 25 -8 0 -14 7 -14 15 0 8
-7 15 -15 15 -8 0 -15 5 -15 10 0 13 -57 70 -70 70 -5 0 -7 7 -4 15 4 9 0 15
-10 15 -9 0 -16 7 -16 15 0 8 -5 15 -11 15 -7 0 -22 11 -35 25 -13 14 -28 25
-34 25 -5 0 -10 7 -10 15 0 8 -7 15 -15 15 -8 0 -15 7 -15 15 0 8 -4 15 -10
15 -5 0 -10 7 -10 15 0 8 -6 15 -14 15 -8 0 -17 14 -21 30 -4 17 -11 30 -16
30 -5 0 -9 4 -9 10 0 5 -7 18 -16 28 -9 11 -27 45 -40 78 -20 48 -23 69 -18
112 3 28 11 52 16 52 5 0 6 4 3 10 -5 9 -9 79 -6 118 1 10 17 13 59 12 31 -1
65 -1 75 -1 19 1 24 21 4 21 -7 0 -17 10 -22 22 -6 13 -20 27 -32 33 -13 5
-23 18 -23 27 0 11 -8 18 -20 18 -12 0 -20 7 -20 16 0 9 -11 27 -25 40 -14 13
-25 28 -25 34 0 5 -4 10 -10 10 -5 0 -10 7 -10 15 0 8 -6 15 -14 15 -22 0 -30
19 -16 35 10 12 9 15 -9 15 -23 0 -29 25 -8 33 8 4 9 6 0 6 -16 1 -45 -29 -40
-43 3 -6 10 -10 16 -9 6 2 10 -1 8 -5 -1 -4 9 -29 23 -54 25 -49 25 -65 -5
-208 -3 -15 0 -11 9 10 8 19 15 27 15 18 1 -27 -18 -70 -28 -63 -5 3 -13 -15
-17 -40 -8 -55 28 -171 84 -274 52 -95 62 -115 62 -123 0 -4 15 -31 34 -60 79
-124 322 -354 608 -577 106 -82 221 -174 256 -204 70 -61 206 -157 222 -157
13 0 119 71 185 124 28 22 106 95 175 161 69 67 152 146 185 175 178 159 334
340 371 430 13 32 43 98 67 146 63 130 102 244 111 326 1 10 5 20 8 23 6 6
-16 108 -32 151 -18 46 -14 198 6 236 9 18 20 35 23 38 20 15 106 179 143 270
16 41 36 89 44 105 13 28 36 107 54 185 5 19 18 72 29 118 12 46 28 130 37
186 l16 103 45 -5 c25 -2 64 2 87 9 41 13 96 54 96 73 0 5 7 17 15 26 19 21
49 94 36 85 -6 -3 -11 -12 -11 -19 0 -12 -29 -55 -77 -114 -23 -27 -32 -32
-55 -27 -16 4 -28 2 -28 -3 0 -15 -41 -22 -63 -11 -16 9 -18 17 -12 47 4 21 8
42 9 47 1 6 5 16 10 24 5 7 12 45 17 85 7 60 53 197 82 244 5 6 21 12 38 12
18 0 29 5 29 14 0 17 -24 28 -45 20 -10 -4 -18 3 -25 22 -16 42 -5 68 35 84
19 7 35 19 35 26 0 6 7 14 15 18 12 4 14 22 11 91 l-3 85 27 0 c33 0 49 -18
72 -79 l18 -46 -6 57 c-5 48 -3 60 14 78 21 22 32 62 32 114 0 17 7 49 16 71
11 30 14 33 11 12 -3 -18 -1 -25 5 -19 14 14 13 193 0 219 -7 12 -12 40 -12
63 0 33 4 43 20 47 14 4 20 14 20 33 0 15 5 41 11 59 9 24 8 35 -2 48 -8 9 -9
14 -2 10 12 -8 33 41 33 78 0 13 7 40 17 61 19 47 23 68 23 157 0 61 3 70 21
74 20 6 20 6 -1 28 -20 21 -20 26 -9 64 7 23 16 41 21 41 13 0 9 20 -7 37 -17
16 -12 33 11 33 9 0 14 10 14 27 0 14 7 34 16 44 15 17 15 21 -6 54 -17 28
-19 36 -7 40 29 12 11 115 -20 115 -12 0 -18 30 -13 73 1 10 10 27 21 38 15
15 17 24 9 39 -5 10 -10 31 -10 45 0 15 -13 44 -28 64 -15 20 -36 56 -47 81
-10 25 -24 50 -30 55 -22 20 -75 107 -70 114 11 19 -126 231 -154 238 -9 2
-21 14 -26 26 -6 12 -20 26 -32 32 -14 6 -21 16 -18 25 7 21 -211 230 -284
275 -52 31 -131 88 -166 120 -93 85 -143 124 -195 148 -30 14 -83 42 -118 61
-35 20 -71 36 -81 36 -9 0 -22 5 -28 11 -12 12 -46 21 -175 49 -48 10 -92 21
-97 24 -15 9 -104 25 -231 41 -119 15 -337 18 -450 5z m-902 -355 c-12 -26
-38 -34 -38 -12 0 17 20 37 37 37 10 0 10 -5 1 -25z m-368 -339 c0 -16 -28
-42 -36 -33 -3 3 -3 15 1 26 7 23 35 29 35 7z m25 -6 c3 -5 1 -10 -4 -10 -6 0
-11 5 -11 10 0 6 2 10 4 10 3 0 8 -4 11 -10z m-215 -140 c0 -5 -4 -10 -10 -10
-5 0 -10 5 -10 10 0 6 5 10 10 10 6 0 10 -4 10 -10z m1105 -640 c-3 -5 -10
-10 -16 -10 -5 0 -9 5 -9 10 0 6 7 10 16 10 8 0 12 -4 9 -10z m1972 -2072 c-3
-8 -6 -5 -6 6 -1 11 2 17 5 13 3 -3 4 -12 1 -19z m-3137 -39 c0 -6 -4 -7 -10
-4 -5 3 -10 11 -10 16 0 6 5 7 10 4 6 -3 10 -11 10 -16z m157 -601 c-3 -8 -6
-5 -6 6 -1 11 2 17 5 13 3 -3 4 -12 1 -19z m2560 -1370 c-3 -8 -6 -5 -6 6 -1
11 2 17 5 13 3 -3 4 -12 1 -19z"/>
<path d="M2522 4368 c-83 -22 -242 -134 -220 -156 6 -6 7 -16 2 -24 -19 -30
-14 -48 14 -49 16 -1 20 -3 10 -6 -10 -2 -18 -9 -18 -14 0 -10 50 -12 74 -3
20 8 21 24 1 24 -21 0 -19 20 3 21 30 3 56 2 87 -2 20 -2 29 0 28 9 -4 17 7
15 41 -7 17 -11 33 -18 37 -15 4 2 10 0 14 -6 3 -5 12 -10 18 -10 7 0 1 9 -13
20 -18 14 -21 20 -9 20 9 0 19 -3 23 -7 4 -4 26 -8 49 -9 33 -2 36 0 17 6 -23
7 -23 7 10 11 37 4 110 -9 110 -20 0 -3 26 -6 58 -6 63 0 120 -15 199 -51 28
-13 56 -24 60 -24 5 0 15 -6 22 -12 6 -7 33 -13 60 -13 46 0 47 0 27 17 -21
16 -21 17 -2 31 14 10 16 16 6 22 -10 6 -9 9 1 16 10 6 8 9 -9 9 -12 0 -21 3
-20 8 4 19 -16 42 -37 42 -12 0 -30 9 -40 20 -10 11 -25 20 -34 20 -9 0 -25 7
-35 15 -11 8 -32 15 -47 15 -15 0 -31 5 -34 10 -3 6 -13 10 -21 10 -8 0 -34 9
-57 19 -76 34 -150 60 -158 55 -5 -3 -17 -1 -26 4 -24 13 -154 19 -191 10z
m138 -178 c0 -5 -2 -10 -4 -10 -3 0 -8 5 -11 10 -3 6 -1 10 4 10 6 0 11 -4 11
-10z"/>
<path d="M4570 4140 c0 -5 5 -10 11 -10 5 0 7 5 4 10 -3 6 -8 10 -11 10 -2 0
-4 -4 -4 -10z"/>
<path d="M2310 4086 c0 -12 9 -16 34 -16 19 0 38 5 41 10 3 6 -5 10 -19 10
-13 0 -31 3 -40 6 -11 4 -16 1 -16 -10z"/>
<path d="M5632 4020 c0 -19 2 -27 5 -17 2 9 2 25 0 35 -3 9 -5 1 -5 -18z"/>
<path d="M4244 3918 c-2 -3 6 -4 18 -2 16 4 14 1 -7 -9 -42 -20 -106 -84 -139
-141 -15 -26 -26 -49 -24 -51 2 -2 22 5 46 15 38 17 42 23 42 54 0 25 7 40 26
55 15 12 30 21 34 21 4 0 15 -20 24 -43 22 -58 53 -85 109 -96 71 -13 133 26
157 99 7 22 15 40 16 40 18 0 55 -28 64 -49 14 -34 121 -84 134 -63 3 6 25 13
50 16 24 4 51 13 61 20 17 12 16 14 -6 34 -12 12 -30 22 -39 22 -9 0 -20 4
-26 9 -11 11 -103 36 -204 56 -78 15 -329 25 -336 13z m159 -25 c-7 -2 -21 -2
-30 0 -10 3 -4 5 12 5 17 0 24 -2 18 -5z m27 -112 c0 -12 -41 -21 -68 -14 -38
9 -24 23 23 23 25 0 45 -4 45 -9z"/>
<path d="M2822 3899 c-96 -6 -171 -20 -217 -39 -11 -5 -38 -16 -60 -25 -111
-44 -118 -54 -55 -79 48 -19 63 -20 128 -5 42 9 51 14 56 37 8 38 17 49 48 57
23 6 27 3 38 -32 27 -82 67 -113 144 -113 57 0 110 42 127 101 7 21 17 39 24
39 22 0 58 -49 64 -87 5 -33 10 -38 41 -44 42 -9 45 -7 31 20 -7 11 -17 18
-25 15 -10 -4 -13 0 -10 13 3 12 -11 35 -41 67 -25 27 -45 46 -45 41 0 -4 -8
-1 -18 8 -25 23 -112 33 -230 26z m113 -18 c7 -13 -28 -23 -49 -15 -14 5 -15
9 -4 15 17 12 45 11 53 0z m15 -120 c0 -15 -39 -24 -68 -15 -27 7 -27 8 8 14
52 11 60 11 60 1z"/>
<path d="M5596 3838 c-3 -13 -6 -40 -6 -60 0 -21 -4 -38 -10 -38 -15 0 -12
-48 3 -53 10 -3 10 -9 0 -26 -7 -11 -13 -39 -13 -61 0 -43 -20 -82 -60 -116
l-25 -22 -17 29 c-10 16 -20 29 -22 29 -7 0 23 -88 41 -123 8 -15 14 -51 15
-80 l1 -52 44 94 c24 52 42 99 39 105 -3 6 -8 1 -11 -11 -4 -13 -11 -23 -16
-23 -5 0 -8 -6 -6 -12 1 -7 -5 -13 -13 -13 -23 0 -24 42 -1 62 12 9 21 23 21
30 0 7 5 13 10 13 6 0 10 8 10 18 0 11 3 13 8 5 4 -6 8 19 9 55 1 37 4 113 6
170 2 56 3 102 2 102 -2 0 -5 -10 -9 -22z"/>
<path d="M1924 3486 c-8 -22 3 -33 18 -18 9 9 9 15 0 24 -9 9 -13 7 -18 -6z"/>
<path d="M1998 2973 c6 -2 18 -2 25 0 6 3 1 5 -13 5 -14 0 -19 -2 -12 -5z"/>
<path d="M3868 2826 c-20 -7 -54 -27 -75 -43 -45 -36 -116 -73 -138 -73 -18 0
-78 32 -147 79 -62 42 -106 49 -138 23 -14 -11 -23 -22 -20 -24 14 -11 120
-58 130 -58 6 0 35 -11 63 -24 80 -36 152 -41 206 -15 26 12 79 24 130 30 151
15 171 22 192 60 15 28 8 32 -27 15 -16 -8 -41 -18 -56 -21 -24 -6 -26 -5 -21
16 4 15 0 26 -12 35 -23 17 -39 17 -87 0z"/>
<path d="M3252 2761 c17 -28 52 -41 111 -41 48 1 50 2 33 15 -11 8 -36 15 -55
15 -20 1 -47 7 -61 15 -34 20 -42 18 -28 -4z"/>
<path d="M3850 2310 c-14 -5 -42 -8 -62 -9 -20 -1 -49 -6 -63 -13 -20 -9 -48
-8 -123 2 -99 13 -473 23 -504 14 -33 -10 -18 -29 45 -58 65 -30 208 -58 230
-44 6 5 48 8 92 7 44 -1 94 3 111 8 21 7 60 6 130 -3 64 -9 142 -12 222 -9
108 5 122 4 122 -10 0 -15 1 -15 16 -1 8 9 24 16 34 16 16 0 70 26 142 67 20
11 20 11 1 22 -24 12 -357 22 -393 11z"/>
<path d="M3977 2146 c-3 -8 -19 -17 -36 -21 -16 -3 -36 -14 -43 -23 -11 -14
-11 -15 5 -9 10 4 27 7 36 7 22 0 74 43 65 53 -11 11 -21 8 -27 -7z"/>
<path d="M4910 1847 c0 -2 11 -31 24 -64 14 -33 35 -100 47 -149 12 -49 38
-127 59 -174 20 -47 43 -110 51 -140 19 -75 16 -428 -6 -570 -21 -144 -41
-314 -59 -515 -9 -93 -19 -185 -22 -202 l-5 -33 1146 0 1145 0 0 243 -1 242
-37 18 c-20 10 -100 43 -177 73 -77 30 -174 70 -215 88 -41 19 -120 50 -175
71 -55 20 -131 50 -170 67 -38 17 -88 39 -110 48 -100 44 -170 71 -300 118
-77 28 -205 82 -285 120 -80 37 -159 74 -175 81 -27 10 -239 220 -527 519 -92
96 -208 184 -208 159z"/>
<path d="M3182 1353 c2 -11 14 -19 31 -21 15 -2 27 -8 27 -13 0 -5 5 -9 10 -9
21 0 9 21 -22 40 -41 25 -50 25 -46 3z"/>
<path d="M3270 1290 c0 -5 11 -10 25 -10 14 0 25 5 25 10 0 6 -11 10 -25 10
-14 0 -25 -4 -25 -10z"/>
<path d="M3918 1213 c7 -3 16 -2 19 1 4 3 -2 6 -13 5 -11 0 -14 -3 -6 -6z"/>
<path d="M3780 188 c-14 -5 -43 -8 -65 -5 -27 2 -53 -3 -79 -16 -49 -24 -266
-157 -266 -163 0 -2 120 -4 268 -3 l267 0 -89 45 c-76 37 -85 44 -58 44 19 0
67 -19 116 -45 l85 -45 121 0 c67 0 119 3 117 8 -7 10 -237 125 -322 160 -55
23 -76 27 -95 20z m94 -63 c-18 -14 -44 -20 -44 -10 0 7 54 34 59 29 3 -2 -4
-11 -15 -19z"/>
</g>
</svg>
